<svg width="712" height="129" viewBox="0 0 712 129" fill="none" xmlns="http://www.w3.org/2000/svg">
    <path d="M20.8322 0.699982H3.38186C1.51411 0.699982 0 2.22851 0 4.11405V125.286C0 127.171 1.51411 128.7 3.38186 128.7H20.8322C22.7 128.7 24.2141 127.171 24.2141 125.286V4.11405C24.2141 2.22851 22.7 0.699982 20.8322 0.699982Z"
          fill="#663259"/>
    <path d="M121.164 128.7H138.614C140.482 128.7 141.996 127.171 141.996 125.286L141.996 4.11402C141.996 2.22848 140.482 0.699944 138.614 0.699944H121.164C119.296 0.699944 117.782 2.22848 117.782 4.11402L117.782 125.286C117.782 127.171 119.296 128.7 121.164 128.7Z"
          fill="#663259"/>
    <path d="M86.121 113.627L117.906 64.6989L117.779 19.8892L70.9978 92.9034V115.059H83.5001C84.0204 115.058 84.5324 114.927 84.9899 114.677C85.4475 114.427 85.8362 114.066 86.121 113.627Z"
          fill="#663259"/>
    <path d="M24.2141 19.8913L70.9979 92.9034V115.059H58.0602C57.5367 115.059 57.0216 114.926 56.562 114.673C56.1023 114.421 55.7126 114.056 55.4287 113.612L24.2141 64.8973V19.8913Z"
          fill="#663259"/>
    <path d="M0 27.5879C0 27.5879 10.1456 14.4779 24.2141 37.143C38.2826 59.8082 53.5475 65.674 53.5475 65.674L70.9958 92.9034L93.2991 58.0969C93.2991 58.0969 113.364 42.2556 126.782 55.1438C140.199 68.0319 142 66.2544 142 66.2544V125.536C142 125.951 141.919 126.363 141.761 126.746C141.604 127.13 141.373 127.479 141.082 127.773C140.791 128.067 140.445 128.3 140.065 128.459C139.685 128.618 139.277 128.7 138.865 128.7H120.92C120.508 128.7 120.1 128.618 119.719 128.458C119.339 128.299 118.993 128.065 118.702 127.771C118.411 127.476 118.18 127.127 118.023 126.742C117.866 126.357 117.785 125.945 117.786 125.529V64.8952L86.1211 113.627C85.836 114.066 85.4472 114.426 84.9897 114.676C84.5321 114.926 84.0203 115.056 83.5002 115.056H58.0602C57.5367 115.056 57.0216 114.924 56.5619 114.671C56.1023 114.419 55.7126 114.054 55.4287 113.61L24.2141 64.8973V125.536C24.2141 125.951 24.133 126.363 23.9755 126.746C23.818 127.13 23.5871 127.479 23.296 127.773C23.0049 128.067 22.6594 128.3 22.2791 128.459C21.8988 128.618 21.4912 128.7 21.0795 128.7H3.13456C2.72292 128.7 2.31532 128.618 1.93502 128.459C1.55471 128.3 1.20916 128.067 0.91809 127.773C0.627019 127.479 0.396129 127.13 0.238603 126.746C0.0810765 126.363 0 125.951 0 125.536V27.5879Z"
          fill="#FFA800"/>
    <path fill-rule="evenodd" clip-rule="evenodd"
          d="M544.578 43.3096C540.441 43.3096 536.784 44.1652 533.581 45.8764C530.378 47.5877 527.922 49.8336 526.214 52.6144V24.7H507.957V103.844H526.214V95.5021C528.002 98.2828 530.458 100.502 533.581 102.187C536.704 103.871 540.387 104.7 544.578 104.7C549.489 104.7 553.947 103.443 557.924 100.903C561.901 98.3631 565.05 94.7802 567.372 90.101C569.695 85.4219 570.842 80.0208 570.842 73.8978C570.842 67.7748 569.695 62.3737 567.372 57.7481C565.05 53.1224 561.901 49.5395 557.924 47.0529C553.947 44.5663 549.489 43.3096 544.578 43.3096ZM539.133 59.2454C542.843 59.2454 545.939 60.5556 548.475 63.1491C551.011 65.7427 552.265 69.3256 552.265 73.8978C552.265 78.47 550.984 82.0796 548.421 84.7534C545.859 87.4272 542.763 88.7641 539.133 88.7641C535.503 88.7641 532.433 87.454 529.898 84.8069C527.362 82.1598 526.107 78.577 526.107 74.0048C526.107 69.4326 527.362 65.8497 529.898 63.2026C532.433 60.5556 535.503 59.2454 539.133 59.2454ZM378.877 78.3898H337.559C337.852 82.1064 339.027 84.9406 341.135 86.8925C343.244 88.8443 345.806 89.8336 348.876 89.8336C353.44 89.8336 356.59 87.9085 358.378 84.0582H377.809C376.822 87.9887 375.007 91.5181 372.418 94.6465C369.829 97.7748 366.572 100.235 362.649 102.026C358.725 103.818 354.348 104.7 349.516 104.7C343.671 104.7 338.493 103.443 333.929 100.957C329.364 98.47 325.814 94.8871 323.252 90.2614C320.69 85.6358 319.408 80.208 319.408 74.0048C319.408 67.8016 320.663 62.3737 323.199 57.7481C325.734 53.1224 329.258 49.5395 333.822 47.0529C338.386 44.5663 343.618 43.3096 349.516 43.3096C355.282 43.3096 360.407 44.5128 364.891 46.9459C369.375 49.3791 372.872 52.8283 375.407 57.3203C377.943 61.8122 379.197 67.0529 379.197 73.0422C379.197 74.7534 379.091 76.5449 378.877 78.3898ZM360.513 68.2294C360.513 65.101 359.446 62.5877 357.31 60.7427C355.175 58.8978 352.506 57.962 349.303 57.962C346.233 57.962 343.671 58.8443 341.562 60.6358C339.454 62.4272 338.173 64.9406 337.665 68.2294H360.513ZM303.687 50.2614C308.065 54.7534 310.253 60.9834 310.253 68.978V103.844H292.103V71.4379C292.103 67.5876 291.089 64.6197 289.06 62.5074C287.032 60.3951 284.229 59.3524 280.679 59.3524C277.129 59.3524 274.326 60.3951 272.298 62.5074C270.269 64.6197 269.255 67.5876 269.255 71.4379V103.844H251.105V71.4379C251.105 67.5876 250.091 64.6197 248.062 62.5074C246.034 60.3951 243.231 59.3524 239.681 59.3524C236.131 59.3524 233.328 60.3951 231.3 62.5074C229.271 64.6197 228.257 67.5876 228.257 71.4379V103.844H210V44.1652H228.257V51.6518C230.099 49.1652 232.528 47.1866 235.517 45.716C238.507 44.2454 241.896 43.5235 245.66 43.5235C250.144 43.5235 254.148 44.486 257.671 46.4112C261.194 48.3363 263.944 51.0903 265.945 54.6465C268.001 51.3577 270.83 48.6839 274.38 46.6251C277.93 44.5663 281.827 43.5235 286.017 43.5235C293.411 43.5235 299.31 45.7695 303.687 50.2614ZM389.554 94.7C391.903 97.8016 395.106 100.235 399.163 102.026C403.22 103.818 407.864 104.7 413.042 104.7C417.873 104.7 422.144 103.925 425.801 102.347C429.457 100.769 432.287 98.6304 434.235 95.8764C436.184 93.1224 437.171 90.0208 437.171 86.5181C437.091 82.3737 436.024 79.085 433.915 76.6251C431.806 74.1652 429.377 72.3737 426.601 71.2775C423.826 70.1812 420.222 69.0582 415.818 67.9085C411.975 67.0529 409.145 66.1973 407.33 65.3417C405.515 64.486 404.608 63.2026 404.608 61.4914C404.608 60.0743 405.168 58.9513 406.316 58.1224C407.464 57.2935 409.092 56.8925 411.227 56.8925C413.709 56.8925 415.738 57.5074 417.259 58.7106C418.781 59.9139 419.688 61.5716 419.982 63.6304H436.851C436.21 57.5074 433.728 52.5877 429.431 48.8711C425.133 45.1545 419.235 43.3096 411.761 43.3096C406.716 43.3096 402.339 44.1385 398.682 45.7695C395.025 47.4005 392.25 49.6465 390.354 52.454C388.459 55.2614 387.525 58.3898 387.525 61.8122C387.525 65.8764 388.566 69.1117 390.621 71.4914C392.677 73.8711 395.132 75.6358 397.988 76.732C400.844 77.8283 404.394 78.8978 408.665 79.8871C412.642 80.8764 415.525 81.7855 417.313 82.6144C419.101 83.4433 419.982 84.7 419.982 86.4112C419.982 87.8283 419.368 89.0048 418.114 89.8871C416.859 90.7695 415.097 91.224 412.829 91.224C410.346 91.224 408.238 90.5823 406.529 89.2989C404.821 88.0155 403.86 86.331 403.647 84.2721H385.603C385.897 88.1224 387.205 91.5983 389.554 94.7ZM458.738 102.026C454.681 100.235 451.478 97.8016 449.129 94.7C446.78 91.5983 445.472 88.1224 445.179 84.2721H463.222C463.436 86.331 464.397 88.0155 466.105 89.2989C467.813 90.5823 469.922 91.224 472.404 91.224C474.673 91.224 476.435 90.7695 477.689 89.8871C478.944 89.0048 479.557 87.8283 479.557 86.4112C479.557 84.7 478.677 83.4433 476.888 82.6144C475.1 81.7855 472.217 80.8764 468.24 79.8871C463.97 78.8978 460.42 77.8283 457.564 76.732C454.708 75.6358 452.252 73.8711 450.197 71.4914C448.142 69.1117 447.101 65.8764 447.101 61.8122C447.101 58.3898 448.035 55.2614 449.93 52.454C451.825 49.6465 454.601 47.4005 458.258 45.7695C461.914 44.1385 466.292 43.3096 471.336 43.3096C478.81 43.3096 484.709 45.1545 489.006 48.8711C493.304 52.5877 495.786 57.5074 496.426 63.6304H479.557C479.264 61.5716 478.356 59.9139 476.835 58.7106C475.313 57.5074 473.285 56.8925 470.803 56.8925C468.667 56.8925 467.039 57.2935 465.891 58.1224C464.744 58.9513 464.183 60.0743 464.183 61.4914C464.183 63.2026 465.091 64.486 466.906 65.3417C468.721 66.1973 471.55 67.0529 475.394 67.9085C479.798 69.0582 483.401 70.1812 486.177 71.2775C488.953 72.3737 491.382 74.1652 493.49 76.6251C495.599 79.085 496.667 82.3737 496.747 86.5181C496.747 90.0208 495.759 93.1224 493.811 95.8764C491.862 98.6304 489.033 100.769 485.376 102.347C481.719 103.925 477.449 104.7 472.618 104.7C467.439 104.7 462.795 103.818 458.738 102.026ZM639.279 44.1652V103.844H621.022V95.716C619.181 98.3631 616.672 100.475 613.495 102.08C610.319 103.684 606.822 104.486 602.979 104.486C598.415 104.486 594.411 103.47 590.914 101.438C587.418 99.4058 584.722 96.4646 582.8 92.6144C580.878 88.7641 579.917 84.2454 579.917 79.0315V44.1652H598.068V76.5716C598.068 80.5556 599.109 83.6572 601.164 85.8764C603.219 88.0957 605.995 89.1919 609.492 89.1919C613.042 89.1919 615.871 88.0957 617.926 85.8764C619.981 83.6572 621.022 80.5556 621.022 76.5716V44.1652H639.279ZM661.7 47.0529C657.723 49.5395 654.574 53.1224 652.251 57.7481C649.956 62.3737 648.782 67.7748 648.782 73.8978C648.782 80.0208 649.929 85.4219 652.251 90.101C654.574 94.7802 657.723 98.3631 661.7 100.903C665.677 103.443 670.135 104.7 675.046 104.7C679.237 104.7 682.92 103.844 686.096 102.133C689.273 100.422 691.701 98.1491 693.41 95.2882V103.844H711.667V24.7H693.41V52.4005C691.568 49.6197 689.006 47.4005 685.776 45.7695C682.546 44.1385 678.97 43.3096 675.046 43.3096C670.135 43.3096 665.677 44.5663 661.7 47.0529ZM680.384 59.2454C684.014 59.2454 687.084 60.5556 689.62 63.2026C692.155 65.8497 693.41 69.4326 693.41 74.0048C693.41 78.577 692.155 82.1598 689.62 84.8069C687.084 87.454 684.014 88.7641 680.384 88.7641C676.754 88.7641 673.685 87.4272 671.149 84.7534C668.613 82.0796 667.359 78.47 667.359 73.8978C667.359 69.3256 668.613 65.7427 671.149 63.1491C673.685 60.5556 676.754 59.2454 680.384 59.2454Z"
          fill="#663259"/>
    <path fill-rule="evenodd" clip-rule="evenodd"
          d="M590.914 101.438C587.418 99.4058 584.722 96.4647 582.8 92.6144C580.878 88.7641 579.917 84.2454 579.917 79.0048V52.4807C586.11 51.5449 592.169 51.0101 598.068 50.8229V76.5449C598.068 80.5288 599.109 83.6304 601.164 85.8497C603.219 88.0689 605.995 89.1652 609.492 89.1652C613.042 89.1652 615.871 88.0689 617.926 85.8497C619.981 83.6304 621.022 80.5288 621.022 76.5449V51.732C627.508 52.454 633.621 53.4967 639.279 54.7267V103.844H621.022V95.716C619.181 98.363 616.672 100.475 613.495 102.08C610.319 103.684 606.823 104.486 602.979 104.486C598.415 104.486 594.411 103.47 590.914 101.438ZM661.7 100.903C657.723 98.363 654.573 94.7802 652.251 90.101C649.956 85.4219 648.781 80.0208 648.808 73.8711C648.808 67.8818 649.902 62.6144 652.118 58.0422C659.298 60.2347 665.33 62.5876 669.868 64.6999C668.186 67.1331 667.359 70.1812 667.359 73.8978C667.359 78.47 668.613 82.0796 671.149 84.7534C673.685 87.4272 676.754 88.7641 680.384 88.7641C684.014 88.7641 687.084 87.454 689.619 84.8069C691.701 82.6411 692.929 79.8069 693.303 76.331C699.015 77.5609 705.527 77.8016 711.667 76.3844V103.844H693.41V95.2882C691.701 98.1491 689.272 100.422 686.096 102.133C682.92 103.844 679.236 104.7 675.046 104.7C670.135 104.7 665.677 103.443 661.7 100.903ZM323.252 90.2614C325.814 94.8871 329.364 98.47 333.929 100.957C338.493 103.443 343.671 104.7 349.516 104.7C354.348 104.7 358.725 103.818 362.649 102.026C366.572 100.235 369.829 97.7748 372.418 94.6465C375.007 91.5181 376.822 87.9887 377.809 84.0582H358.378C356.59 87.9085 353.44 89.8336 348.876 89.8336C345.806 89.8336 343.244 88.8443 341.135 86.8925C339.027 84.9406 337.852 82.1064 337.559 78.3898H378.877C379.091 76.5449 379.197 74.7534 379.197 73.0422V72.8016C373.432 71.0903 365.238 69.1652 355.362 68.2294H337.665C337.679 68.1491 337.692 68.0756 337.705 68.0021L337.706 67.9994L337.706 67.9992C337.719 67.9266 337.732 67.854 337.745 67.7748C331.98 68.0422 325.921 68.7106 319.595 69.9406C319.462 71.2507 319.408 72.6144 319.408 74.0048C319.408 80.208 320.69 85.6358 323.252 90.2614ZM417.313 82.6144C419.101 83.4433 419.982 84.7 419.982 86.4112C419.982 87.8283 419.368 89.0048 418.114 89.8871C416.859 90.7695 415.097 91.224 412.829 91.224C410.346 91.224 408.238 90.5823 406.529 89.2989C404.821 88.0155 403.86 86.331 403.647 84.2721H385.603C385.897 88.1224 387.205 91.5983 389.554 94.7C391.902 97.8016 395.105 100.235 399.163 102.026C403.22 103.818 407.837 104.7 413.042 104.7C417.873 104.7 422.144 103.925 425.801 102.347C429.457 100.769 432.287 98.6304 434.235 95.8764C436.184 93.1224 437.171 90.0208 437.171 86.5181C437.145 85.0208 436.984 83.6304 436.691 82.347C424.813 81.7053 414.323 80.4753 406.182 79.2721C406.679 79.4049 407.186 79.5273 407.704 79.6522L407.704 79.6523C408.02 79.7286 408.341 79.806 408.665 79.8871C412.668 80.8764 415.551 81.7855 417.313 82.6144ZM228.257 78.7909V103.844H210V69.7534C215.018 72.5342 221.344 75.7962 228.257 78.7909ZM269.255 88.0957V103.818H251.105V86.5181C257.404 87.9352 263.597 88.6304 269.255 88.0957ZM310.253 103.818V72.1598C304.328 73.8176 298.269 76.0101 292.103 78.8176V103.818H310.253ZM526.214 103.844V95.5021C528.003 98.2828 530.458 100.502 533.581 102.187C536.704 103.871 540.387 104.7 544.578 104.7C549.489 104.7 553.947 103.443 557.924 100.903C561.901 98.363 565.05 94.7802 567.373 90.101C569.695 85.4219 570.842 80.0208 570.842 73.8978C570.842 67.7748 569.695 62.3737 567.373 57.7481C566.945 56.8925 566.492 56.0903 566.011 55.3149C559.659 56.9192 553.199 59.0048 546.767 61.6518C547.354 62.0796 547.941 62.5877 548.475 63.1491C551.011 65.7427 552.265 69.3256 552.265 73.8978C552.265 78.47 550.984 82.0796 548.422 84.7534C545.859 87.4272 542.763 88.7641 539.133 88.7641C535.503 88.7641 532.433 87.454 529.898 84.8069C527.362 82.1598 526.107 78.577 526.107 74.0048C526.107 72.8818 526.188 71.8122 526.348 70.8229C520.369 73.1491 514.203 75.0743 507.957 76.6518V103.844H526.214ZM479.557 86.4112C479.557 87.8283 478.943 89.0048 477.689 89.8871C476.434 90.7695 474.673 91.224 472.404 91.224C469.922 91.224 467.813 90.5823 466.105 89.2989C464.397 88.0155 463.436 86.331 463.222 84.2721H445.179C445.472 88.1224 446.78 91.5983 449.129 94.6999C451.478 97.8016 454.681 100.235 458.738 102.026C462.795 103.818 467.413 104.7 472.618 104.7C477.449 104.7 481.719 103.925 485.376 102.347C489.033 100.769 491.862 98.6304 493.811 95.8764C495.759 93.1224 496.747 90.0208 496.747 86.5181C496.693 83.7641 496.186 81.3844 495.252 79.3524C488.552 80.5288 481.853 81.3844 475.207 81.9192C475.847 82.1598 476.408 82.3737 476.888 82.5876C478.677 83.4433 479.557 84.6999 479.557 86.4112Z"
          fill="#FFA800"/>
    <rect x="175" y="1" width="2.72385" height="127" rx="1.36192" fill="#663259"/>
    <path d="M175 76.9038L177.724 77.603V126.638C177.724 127.39 177.114 128 176.362 128V128C175.61 128 175 127.39 175 126.638V76.9038Z"
          fill="#FFA800"/>
</svg>
